<svg xmlns="http://www.w3.org/2000/svg" width="805" height="600"><rect width="805" height="600" x="0" y="0" fill="#FFFFFF" id="backgorund"/><g id="viz"><clipPath id="serieClipPath"><rect x="-55" y="-25" width="805" height="600"/></clipPath><g transform="translate(0,0)"><g transform="translate(55,25)" clip-path="url(#serieClipPath)"><g id="axis"><g transform="translate(0,552)" fill="none" font-size="10" font-family="sans-serif" text-anchor="middle"><path class="domain" stroke="currentColor" d="M0.5,6V0.5H731.5V6"/><g class="tick" opacity="1" transform="translate(0.5,0)"><line stroke="currentColor" y2="6"/><text fill="currentColor" y="9" dy="0.71em">Mon 17</text></g><g class="tick" opacity="1" transform="translate(50.91379310344828,0)"><line stroke="currentColor" y2="6"/><text fill="currentColor" y="9" dy="0.71em">Wed 19</text></g><g class="tick" opacity="1" transform="translate(101.32758620689656,0)"><line stroke="currentColor" y2="6"/><text fill="currentColor" y="9" dy="0.71em">Fri 21</text></g><g class="tick" opacity="1" transform="translate(151.74137931034483,0)"><line stroke="currentColor" y2="6"/><text fill="currentColor" y="9" dy="0.71em">Oct 23</text></g><g class="tick" opacity="1" transform="translate(202.1551724137931,0)"><line stroke="currentColor" y2="6"/><text fill="currentColor" y="9" dy="0.71em">Tue 25</text></g><g class="tick" opacity="1" transform="translate(252.5689655172414,0)"><line stroke="currentColor" y2="6"/><text fill="currentColor" y="9" dy="0.71em">Thu 27</text></g><g class="tick" opacity="1" transform="translate(302.98275862068965,0)"><line stroke="currentColor" y2="6"/><text fill="currentColor" y="9" dy="0.71em">Sat 29</text></g><g class="tick" opacity="1" transform="translate(353.39655172413796,0)"><line stroke="currentColor" y2="6"/><text fill="currentColor" y="9" dy="0.71em">Mon 31</text></g><g class="tick" opacity="1" transform="translate(378.6034482758621,0)"><line stroke="currentColor" y2="6"/><text fill="currentColor" y="9" dy="0.71em">November</text></g><g class="tick" opacity="1" transform="translate(429.0172413793103,0)"><line stroke="currentColor" y2="6"/><text fill="currentColor" y="9" dy="0.71em">Thu 03</text></g><g class="tick" opacity="1" transform="translate(479.4310344827586,0)"><line stroke="currentColor" y2="6"/><text fill="currentColor" y="9" dy="0.71em">Sat 05</text></g><g class="tick" opacity="1" transform="translate(529.8448275862069,0)"><line stroke="currentColor" y2="6"/><text fill="currentColor" y="9" dy="0.71em">Mon 07</text></g><g class="tick" opacity="1" transform="translate(580.2586206896552,0)"><line stroke="currentColor" y2="6"/><text fill="currentColor" y="9" dy="0.71em">Wed 09</text></g><g class="tick" opacity="1" transform="translate(630.6724137931034,0)"><line stroke="currentColor" y2="6"/><text fill="currentColor" y="9" dy="0.71em">Fri 11</text></g><g class="tick" opacity="1" transform="translate(681.0862068965517,0)"><line stroke="currentColor" y2="6"/><text fill="currentColor" y="9" dy="0.71em">Nov 13</text></g><g class="tick" opacity="1" transform="translate(731.5,0)"><line stroke="currentColor" y2="6"/><text fill="currentColor" y="9" dy="0.71em">Tue 15</text></g><text x="731" dy="-5" text-anchor="end" style="font-family: Arial, sans-serif; font-size: 12px; fill: rgb(123, 123, 123); font-weight: bold;">日期</text></g><g transform="translate(0,0)" fill="none" font-size="10" font-family="sans-serif" text-anchor="end"><path class="domain" stroke="currentColor" d="M0.5,552.5V0.5"/><g class="tick" opacity="1" transform="translate(0,552.5)"><line stroke="currentColor" x2="-6"/><text fill="currentColor" x="-9" dy="0.32em">370</text></g><g class="tick" opacity="1" transform="translate(0,502.3181818181818)"><line stroke="currentColor" x2="-6"/><text fill="currentColor" x="-9" dy="0.32em">380</text></g><g class="tick" opacity="1" transform="translate(0,452.1363636363636)"><line stroke="currentColor" x2="-6"/><text fill="currentColor" x="-9" dy="0.32em">390</text></g><g class="tick" opacity="1" transform="translate(0,401.95454545454544)"><line stroke="currentColor" x2="-6"/><text fill="currentColor" x="-9" dy="0.32em">400</text></g><g class="tick" opacity="1" transform="translate(0,351.77272727272725)"><line stroke="currentColor" x2="-6"/><text fill="currentColor" x="-9" dy="0.32em">410</text></g><g class="tick" opacity="1" transform="translate(0,301.59090909090907)"><line stroke="currentColor" x2="-6"/><text fill="currentColor" x="-9" dy="0.32em">420</text></g><g class="tick" opacity="1" transform="translate(0,251.40909090909093)"><line stroke="currentColor" x2="-6"/><text fill="currentColor" x="-9" dy="0.32em">430</text></g><g class="tick" opacity="1" transform="translate(0,201.22727272727272)"><line stroke="currentColor" x2="-6"/><text fill="currentColor" x="-9" dy="0.32em">440</text></g><g class="tick" opacity="1" transform="translate(0,151.04545454545453)"><line stroke="currentColor" x2="-6"/><text fill="currentColor" x="-9" dy="0.32em">450</text></g><g class="tick" opacity="1" transform="translate(0,100.86363636363633)"><line stroke="currentColor" x2="-6"/><text fill="currentColor" x="-9" dy="0.32em">460</text></g><g class="tick" opacity="1" transform="translate(0,50.6818181818182)"><line stroke="currentColor" x2="-6"/><text fill="currentColor" x="-9" dy="0.32em">470</text></g><g class="tick" opacity="1" transform="translate(0,0.5)"><line stroke="currentColor" x2="-6"/><text fill="currentColor" x="-9" dy="0.32em">480</text></g><text x="4" text-anchor="start" dominant-baseline="hanging" style="font-family: Arial, sans-serif; font-size: 12px; fill: rgb(123, 123, 123); font-weight: bold;">收盤</text></g></g><g id="viz"><g><path d="M0,416.5090909090909C12.60344827586207,416.5090909090909,12.60344827586207,366.3272727272727,25.20689655172414,366.3272727272727C37.810344827586206,366.3272727272727,37.810344827586206,424.03636363636366,50.41379310344828,424.03636363636366C63.01724137931035,424.03636363636366,63.01724137931035,414,75.62068965517241,414C88.22413793103448,414,88.22413793103448,454.1454545454546,100.82758620689656,454.1454545454546C138.63793103448276,454.1454545454546,138.63793103448276,466.6909090909091,176.44827586206898,466.6909090909091C189.05172413793105,466.6909090909091,189.05172413793105,546.9818181818182,201.6551724137931,546.9818181818182C214.25862068965517,546.9818181818182,214.25862068965517,521.8909090909091,226.86206896551724,521.8909090909091C239.4655172413793,521.8909090909091,239.4655172413793,474.21818181818185,252.0689655172414,474.21818181818185C264.6724137931035,474.21818181818185,264.6724137931035,504.3272727272727,277.2758620689655,504.3272727272727C315.08620689655174,504.3272727272727,315.08620689655174,451.6363636363636,352.89655172413796,451.6363636363636C365.5,451.6363636363636,365.5,444.1090909090909,378.1034482758621,444.1090909090909C390.7068965517242,444.1090909090909,390.7068965517242,426.54545454545456,403.3103448275862,426.54545454545456C415.91379310344826,426.54545454545456,415.91379310344826,481.7454545454546,428.5172413793103,481.7454545454546C441.1206896551724,481.7454545454546,441.1206896551724,491.78181818181815,453.7241379310345,491.78181818181815C491.5344827586207,491.78181818181815,491.5344827586207,451.6363636363636,529.3448275862069,451.6363636363636C541.948275862069,451.6363636363636,541.948275862069,406.47272727272724,554.551724137931,406.47272727272724C567.1551724137931,406.47272727272724,567.1551724137931,316.1454545454546,579.7586206896552,316.1454545454546C592.3620689655172,316.1454545454546,592.3620689655172,363.81818181818187,604.9655172413793,363.81818181818187C617.5689655172414,363.81818181818187,617.5689655172414,193.2,630.1724137931034,193.2C667.9827586206897,193.2,667.9827586206897,175.63636363636365,705.7931034482759,175.63636363636365C718.3965517241379,175.63636363636365,718.3965517241379,0,731,0" stroke="#1f77b4" fill="none"/><text font-family="sans-serif" font-size="10" class="labels" x="731" y="0" dx="0" dy="-4" text-anchor="middle"/></g></g></g><text y="4" x="4" style="font-family: Arial, sans-serif; font-size: 12px; fill: black; font-weight: bold; dominant-baseline: hanging;"/></g><g id="grid"><rect x="0" y="0" width="805" height="600" fill="none" stroke="#ccc"/></g></g></svg>